<?xml version="1.0" encoding="UTF-8" standalone="no"?>
<svg
   class="MuiSvgIcon-root MuiSvgIcon-fontSizeMedium css-m9simb"
   focusable="false"
   aria-hidden="true"
   viewBox="0 0 20.907499 17.448"
   data-testid="SchoolRoundedIcon"
   version="1.1"
   id="svg1"
   sodipodi:docname="startup.svg"
   width="20.907499"
   height="17.448"
   inkscape:version="1.3.2 (091e20ef0f, 2023-11-25)"
   xmlns:inkscape="http://www.inkscape.org/namespaces/inkscape"
   xmlns:sodipodi="http://sodipodi.sourceforge.net/DTD/sodipodi-0.dtd"
   xmlns="http://www.w3.org/2000/svg"
   xmlns:svg="http://www.w3.org/2000/svg">
  <defs
     id="defs1" />
  <sodipodi:namedview
     id="namedview1"
     pagecolor="#ffffff"
     bordercolor="#000000"
     borderopacity="0.25"
     inkscape:showpageshadow="2"
     inkscape:pageopacity="0.0"
     inkscape:pagecheckerboard="0"
     inkscape:deskcolor="#d1d1d1"
     inkscape:zoom="33.5"
     inkscape:cx="9.9253731"
     inkscape:cy="8.7164179"
     inkscape:window-width="1920"
     inkscape:window-height="1008"
     inkscape:window-x="0"
     inkscape:window-y="0"
     inkscape:window-maximized="1"
     inkscape:current-layer="svg1" />
  <path
     fill="#ffffff"
     d="m 2.9075,9.9 v 2.81 c 0,0.73 0.4,1.41 1.04,1.76 l 5,2.73 c 0.6,0.33 1.32,0.33 1.92,0 l 5,-2.73 c 0.64,-0.35 1.04,-1.03 1.04,-1.76 V 9.9 l -6.04,3.3 c -0.6,0.33 -1.32,0.33 -1.92,0 z m 6.04,-9.66 -8.43,4.6 c -0.69,0.38 -0.69,1.38 0,1.76 l 8.43,4.6 c 0.6,0.33 1.32,0.33 1.92,0 l 8.04,-4.39 v 5.91 c 0,0.55 0.45,1 1,1 0.55,0 1,-0.45 1,-1 V 6.31 c 0,-0.37 -0.2,-0.7 -0.52,-0.88 l -9.52,-5.19 a 2.04,2.04 0 0 0 -1.92,0"
     id="path1"
     style="fill:#ffffff" />
</svg>
