<svg xmlns="http://www.w3.org/2000/svg" width="826.73054" height="500.96404" viewBox="0 0 826.73054 500.96404" xmlns:xlink="http://www.w3.org/1999/xlink" role="img" artist="Katerina Limpitsouni" source="https://undraw.co/"><path d="m656.77002,75.90998c5.53019-2.74154,12.69876.45311,16.01141,7.13554,1.89321,3.81906,2.11099,7.94715.92318,11.29836l.07533.15207,21.73448,38.69229,38.8939-20.44883c7.2914-4.49195,16.07508-5.70194,21.15325,1.19396h0c6.2924,8.54478,2.97402,20.72322-6.78321,24.8948l-50.7512,21.69795c-7.21016,3.08254-15.55357-.27113-18.62447-7.48631l-18.21484-52.49107c-3.38641-1.08366-6.53991-3.75633-8.43312-7.57538-3.31273-6.68238-1.5149-14.32183,4.01529-17.06337Z" fill="#9b616a" stroke-width="0"/><polyline points="750.47413 101.1574 705.6577 123.45785 722.63943 156.37133 767.75284 129.71761" fill="#cacacb" stroke-width="0"/><rect x="684.56769" y="461.8978" width="16.80587" height="22.15047" fill="#9b616a" stroke-width="0"/><path d="m698.5051,499.3355h-35.72344c-3.05333,0-6.12175-.69917-8.87358-2.02198l-6.58576-3.16573c-1.36169-.65454-2.24155-2.05374-2.24155-3.56455,0-1.77182,1.19263-3.33929,2.90028-3.81184l13.58675-3.75956,23.24358-12.21742.01738.08803c.4347,2.20149,1.1082,5.52739,1.19387,5.72913,2.38362,2.73063,4.83227,3.98893,7.27797,3.741,4.26589-.43248,7.10179-5.35846,7.12996-5.40819l.02157-.03803.04352.00444c.99893.10338,1.73784.50626,2.19627,1.19746.97312,1.46736.37948,3.72714.28179,4.06801,1.16544,1.14028,1.68844,7.50814,1.72889,8.02211,1.6851,1.78613,2.4859,3.50326,2.37977,5.10367-.09273,1.3992-.86869,2.69861-2.30618,3.86229-1.72947,1.40011-3.95659,2.17117-6.27107,2.17117Z" fill="#090814" stroke-width="0"/><rect x="798.83666" y="453.70189" width="16.80587" height="22.15047" transform="translate(-97.69404 243.98615) rotate(-16.22019)" fill="#9b616a" stroke-width="0"/><path d="m819.91759,488.5443l-34.30148,9.97861c-2.93179.85288-6.07337,1.03864-9.08517.53716l-7.2079-1.20012c-1.49032-.24813-2.726-1.34586-3.14801-2.79654-.49492-1.70129.21239-3.53951,1.72007-4.47024l11.99578-7.40509,18.90569-18.22372.04128.07967c1.03234,1.99244,2.60805,4.99782,2.74666,5.1676,3.05149,1.95612,5.75415,2.48036,8.03325,1.55914,3.97528-1.60686,5.32233-7.12891,5.33548-7.18453l.01008-.04254.04303-.00789c.98805-.17976,1.81008.00068,2.44333.53632,1.34426,1.13713,1.40548,3.47278,1.40689,3.82737,1.43757.76935,3.71847,6.73765,3.90088,7.21986,2.11695,1.24434,3.36551,2.66943,3.71065,4.23578.3018,1.36941-.08031,2.83384-1.13554,4.35273-1.26954,1.82748-3.19262,3.18994-5.41498,3.83644Z" fill="#090814" stroke-width="0"/><path d="m764.35707,63.82422c0-15.08929-12.23232-27.32161-27.32161-27.32161s-27.32171,12.23232-27.32171,27.32161c0,12.23752,8.04613,22.59449,19.13614,26.07274l5.28174,34.90602,26.92563-22.43799s-5.81675-7.40913-8.93618-15.76334c7.37279-4.8928,12.23599-13.26559,12.23599-22.77742Z" fill="#9b616a" stroke-width="0"/><path d="m775.13753,198.67223l3.94364-55.2155c.34218-4.78848-.26296-9.59737-1.78113-14.15146l-11.6872-35.06078-34.42623,11.05755-14.5259,33.23269-7.91179,14.50426c-3.60146,6.60309-2.42221,14.78968,2.89587,20.10817l5.01592,5.01592-6.99305,25.64144.73581-.02613-.99061.12699s-46.73491,140.61632-45.06239,260.20123h59.99417l3.56145-138.81885,10.42138,144.20716,79.05824-4.55205-42.24819-266.27064Z" fill="#cacacb" stroke-width="0"/><path d="m773.12941,99.72191s-1.27583,9.67969-13.09633,9.9958q-23.97794.64122-23.97794.64122s20.26962-49.32867,11.93504-43.77144c-8.33458,5.55723-30.56013-17.7404-30.56013-17.7404l-6.558,12.29947s-15.66755-5.67354,1.69616-19.56662c0,0,20.71741-16.01708,42.71144-6.39879,21.99403,9.61829,17.84975,64.54076,17.84975,64.54076Z" fill="#090814" stroke-width="0"/><path d="m676.16362,209.55669c-.31854-6.16422,5.46139-11.47332,12.90992-11.85814,4.25689-.21994,8.13167,1.22043,10.73504,3.64199l.16948-.00871,44.14273-4.57165-3.31174-43.81692c-1.22507-8.47592,1.15456-17.01727,9.50047-18.93744h0c10.34149-2.3793,20.19887,5.50475,20.1502,16.11621l-.25323,55.1944c-.03603,7.84137-6.42869,14.16541-14.27005,14.1167l-55.40709-4.1409c-2.33996,2.67706-6.04559,4.50902-10.30247,4.72896-7.4485.38491-13.74472-4.30029-14.06326-10.46451Z" fill="#9b616a" stroke-width="0"/><polyline points="736.56393 133.5982 739.22166 183.58578 776.17291 181.07953 769.63829 129.08973" fill="#cacacb" stroke-width="0"/><path d="m0,499.57458c0,.68004.54402,1.23769,1.23768,1.23769h824.25522c.68004,0,1.23765-.54403,1.23765-1.23769s-.54399-1.23769-1.23765-1.23769H1.23768c-.68004,0-1.23768.54403-1.23768,1.23769Z" fill="#2f2e43" stroke-width="0"/><rect x="455.4335" y="61.99702" width="232.57535" height="21.0815" rx="10.54074" ry="10.54074" fill="#6c63ff" stroke-width="0"/><rect x="500.99651" y="147.68268" width="187.01235" height="21.0815" rx="10.54072" ry="10.54072" fill="#6c63ff" stroke-width="0"/><path d="m646.1861,203.44636h31.28207c5.82147,0,10.5407,4.71926,10.5407,10.54074h0c0,5.82147-4.71922,10.54074-10.5407,10.54074h-31.28207c-5.82147,0-10.5407-4.71926-10.5407-10.54074h0c0-5.82147,4.71922-10.54074,10.5407-10.54074Z" fill="#6c63ff" stroke-width="0"/><rect x="183.41555" y="120.48082" width="178.85181" height="21.0815" rx="10.54072" ry="10.54072" fill="#cacacb" stroke-width="0"/><path d="m193.95628,174.88439h46.24297c5.82147,0,10.54074,4.71924,10.54074,10.54074h0c0,5.82147-4.71926,10.54074-10.54074,10.54074h-46.24297c-5.82147,0-10.54074-4.71926-10.54074-10.54074h0c0-5.82149,4.71926-10.54074,10.54074-10.54074Z" fill="#cacacb" stroke-width="0"/><rect x="515.9575" y="91.91894" width="172.05136" height="21.0815" rx="10.54074" ry="10.54074" fill="#6c63ff" stroke-width="0"/><rect x="15.57035" y="434.9278" width="17.33074" height="17.33074" transform="translate(-219.48412 815.02675) rotate(-143.60147)" fill="#e8989b" stroke-width="0"/><path d="m1.26842,454.23077c-.4811-1.84556-.33003-3.39896.44921-4.61711.89125-1.39336,2.60671-2.32862,5.09841-2.78003.34809-.40187,4.67889-5.36745,6.34404-5.60077.12749-.34272,1.01758-2.58171,2.72324-3.20421.80348-.2932,1.66335-.17545,2.55577.35001l.03885.02294-.00537.04477c-.00705.05851-.66748,5.88269,2.60876,8.8521,1.87833,1.7024,4.68082,2.15635,8.3303,1.34841.19456-.11502,2.78881-2.46355,4.4968-4.02488l.06829-.06243,11.81706,24.3645,8.97706,11.43476c1.12827,1.4372,1.15902,3.46808.07479,4.93877-.92451,1.25405-2.51106,1.87703-4.04186,1.58707l-7.4037-1.40233c-3.09362-.58594-6.0684-1.88326-8.60281-3.75168l-29.65215-21.86028c-1.92113-1.4163-3.29791-3.41916-3.87668-5.63964Z" fill="#090814" stroke-width="0"/><rect x="170.48514" y="467.86863" width="17.33074" height="17.33074" transform="translate(358.30102 953.06801) rotate(-180)" fill="#e8989b" stroke-width="0"/><path d="m166.97626,498.72506c-1.48239-1.20002-2.28258-2.54001-2.37821-3.98291-.10944-1.65039.71636-3.42114,2.45409-5.26306.04171-.53003.58104-7.09676,1.78288-8.27265-.10075-.35151-.71292-2.68187.29059-4.19506.47274-.71279,1.23473-1.12825,2.26486-1.23486l.04488-.00458.02224.03922c.02905.05128,2.95352,5.13111,7.35264,5.5771,2.52209.25568,5.04721-1.04192,7.50528-3.85784.08835-.20803.78288-3.63781,1.23116-5.90806l.01793-.09077,23.96951,12.59899,14.01109,3.87697c1.76098.4873,2.99086,2.10373,2.99086,3.93089,0,1.558-.90735,3.0009-2.31156,3.67588l-6.79144,3.2646c-2.83778,1.36412-6.00203,2.08513-9.15072,2.08513h-36.83914c-2.38677,0-4.68344-.79514-6.46692-2.23898Z" fill="#090814" stroke-width="0"/><polygon points="82.20533 192.78653 165.26573 192.78653 192.95254 470.08809 165.26573 470.08809 122.58449 292.15122 109.89213 342.35483 39.9932 452.02411 12.46277 425.21586 71.82526 331.43731 82.20533 192.78653" fill="#090814" stroke-width="0"/><path d="m107.15747,36.42918c0-15.56066,12.61435-28.17491,28.17459-28.17491,15.56066,0,28.17501,12.61425,28.17501,28.17491,0,12.61961-8.29742,23.30015-19.73358,26.88703l-5.44669,35.99619-27.76656-23.13887s5.99831-7.64043,9.21538-16.25555c-7.60306-5.04582-12.61814-13.68-12.61814-23.48879Z" fill="#e8989b" stroke-width="0"/><path d="m120.55651,60.77612s-5.3722-27.18061,2.39238-23.94537c7.76458,3.23524,5.68689,8.70442,5.68689,8.70442h0l7.44105-10.99982v-12.61744s4.85286-5.49991,4.85286-5.49991l20.70554,8.73515s10.99982-32.3524-20.38202-21.99964c0,0-26.8525-10.99982-34.61707,8.0881-18.40833,42.99913,13.92037,49.5345,13.92037,49.5345Z" fill="#090814" stroke-width="0"/><path d="m82.49006,194.61534l73.63261.32653c6.13023.3094,11.18582-3.33365,10.60446-7.64156l-13.95344-103.39527-24.9515-13.07776c-5.264-2.75901-11.71451-1.73838-15.86962,2.51097l-14.78625,15.1216c-3.8783,3.96626-6.37022,8.5218-7.27253,13.29508l-6.90313,68.45231c-.45366,2.39992-.06452,4.84155,1.13334,7.11098l2.7081,5.13068c2.87055,5.43846-12.56117,11.75162-4.34202,12.16645Z" fill="#6c63ff" stroke-width="0"/><path d="m171.79858,206.92038l-22.8142-15.01341,8.76583-13.32045,22.8142,15.01341c3.9617-.88107,8.60834-.06178,12.67266,2.61283,7.1115,4.67989,9.73677,13.24463,5.86377,19.13-3.873,5.88537-12.7776,6.86261-19.8891,2.18273-4.06432-2.67462-6.65497-6.61816-7.41316-10.60511Z" fill="#e8989b" stroke-width="0"/><polyline points="102.92622 119.33109 110.08875 176.12246 156.78206 205.20514 177.92711 184.44009 132.45524 159.80379 139.28807 92.80136" fill="#6c63ff" stroke-width="0"/></svg>