<svg xmlns="http://www.w3.org/2000/svg" width="941.73911" height="688" viewBox="0 0 941.73911 688" xmlns:xlink="http://www.w3.org/1999/xlink" role="img" artist="Katerina Limpitsouni" source="https://undraw.co/"><path d="M977.86956,348h-1a41.04651,41.04651,0,0,1-41-41V293h-122v-2h124v16a39.04723,39.04723,0,0,0,38,38.9873V291h29a15.017,15.017,0,0,0,15-15V123a15.017,15.017,0,0,0-15-15h-382a15.017,15.017,0,0,0-15,15V234h-2V123a17.01917,17.01917,0,0,1,17-17h382a17.01917,17.01917,0,0,1,17,17V276a17.01917,17.01917,0,0,1-17,17h-27Z" transform="translate(-129.13044 -106)" fill="#ccc"/><path d="M941.84954,156.51a12.49675,12.49675,0,0,0-12.48-12.01h-231a12.5,12.5,0,0,0,0,25h231a12.51731,12.51731,0,0,0,12.5-12.5A4.01126,4.01126,0,0,0,941.84954,156.51Z" transform="translate(-129.13044 -106)" fill="#ccc"/><path d="M941.84954,198.51a12.49675,12.49675,0,0,0-12.48-12.01h-231a12.5,12.5,0,0,0,0,25h231a12.51731,12.51731,0,0,0,12.5-12.5A4.01126,4.01126,0,0,0,941.84954,198.51Z" transform="translate(-129.13044 -106)" fill="#ccc"/><path d="M941.84954,240.51a12.49675,12.49675,0,0,0-12.48-12.01h-231a12.491,12.491,0,0,0-9.6001,4.5,13.06515,13.06515,0,0,0-1.35986,2h110.46a15.01828,15.01828,0,0,1,15,15v3.5h116.5a12.51731,12.51731,0,0,0,12.5-12.5A4.01126,4.01126,0,0,0,941.84954,240.51Z" transform="translate(-129.13044 -106)" fill="#ccc"/><path d="M153.648,790.70459c.544.44692,1.08826.87439,1.64519,1.29541H292.69731q1.53513-.63153,3.057-1.29541A161.80144,161.80144,0,0,0,335.82786,765.755c8.01218-6.78793,15.383-13.7961,20.72654-20.36383,7.45493-9.165,14.32066-19.15263,17.514-30.53277,3.18665-11.38017,2.23471-24.42495-4.88372-33.862a30.30927,30.30927,0,0,0-7.99921-7.32554c-.51172-.32385-1.02975-.63474-1.56076-.92621a39.85643,39.85643,0,0,0-28.92026-3.47817c-13.76372,3.55589-25.202,13.48521-33.36311,25.13093-8.16114,11.63927-13.45948,25.00786-18.6797,38.22753-5.29833-23.59587-21.342-44.73047-43.01416-55.47591-21.66584-10.7454-48.58448-10.61589-69.79017,1.02339a70.141,70.141,0,0,0-17.84445,14.05519c-.51139.55054-1.01045,1.114-1.50256,1.684-10.34366,11.976-16.81438,27.31369-17.34539,43.13066A67.606,67.606,0,0,0,153.648,790.70459Z" transform="translate(-129.13044 -106)" fill="#f2f2f2"/><path d="M287.20479,792h1.94311c.02562-.43395.05819-.86146.09709-1.29541a145.20282,145.20282,0,0,1,4.249-25.09207,154.68282,154.68282,0,0,1,24.8136-52.11432A148.06524,148.06524,0,0,1,360.73222,674.338a.91977.91977,0,0,0,.45321-.66716.96879.96879,0,0,0-1.43141-1.01042,1.46432,1.46432,0,0,0-.12935.08421,146.67766,146.67766,0,0,0-25.986,20.15656,156.03093,156.03093,0,0,0-33.49278,48.01434,151.29875,151.29875,0,0,0-12.8377,49.78905C287.26931,791.13854,287.23705,791.57253,287.20479,792Z" transform="translate(-129.13044 -106)" fill="#fff"/><path d="M146.51026,693.91162a.11955.11955,0,0,0,.04523.013c1.41843.25905,2.84351.53112,4.25562.82255a192.2645,192.2645,0,0,1,33.89443,10.292,200.01555,200.01555,0,0,1,31.41367,16.19261,203.24075,203.24075,0,0,1,28.14258,21.42608,199.18553,199.18553,0,0,1,23.95874,25.9859A192.68022,192.68022,0,0,1,282.865,790.70459c.246.42747.48578.86146.72551,1.29541H285.812c-.23308-.43395-.47281-.86794-.71886-1.29541A194.26175,194.26175,0,0,0,266.97035,763.935a201.3327,201.3327,0,0,0-24.8136-25.74626,205.86736,205.86736,0,0,0-28.74506-20.90788,201.98779,201.98779,0,0,0-32.07434-15.64856,192.4342,192.4342,0,0,0-33.32453-9.40465c-.31721-.05831-.62809-.11658-.94562-.17489C145.85623,691.83247,145.33788,693.659,146.51026,693.91162Z" transform="translate(-129.13044 -106)" fill="#fff"/><path d="M185.14865,761.52513a128.39321,128.39321,0,0,1,40.70511.91777,131.058,131.058,0,0,1,38.32647,13.4,126.43128,126.43128,0,0,1,19.12609,12.63624c.97683.78035-.406,2.14728-1.374,1.374a125.53078,125.53078,0,0,0-34.83818-19.5837,129.31243,129.31243,0,0,0-38.90388-7.89239,123.75975,123.75975,0,0,0-22.52507,1.02178,1.00648,1.00648,0,0,1-1.19513-.67857.97753.97753,0,0,1,.67857-1.19513Z" transform="translate(-129.13044 -106)" fill="#fff"/><path d="M796.86956,235h-382a17.0241,17.0241,0,0,0-17,17V405a17.0241,17.0241,0,0,0,17,17h27v55h1a41.04329,41.04329,0,0,0,41-41V422h313a17.02411,17.02411,0,0,0,17-17V252A17.02411,17.02411,0,0,0,796.86956,235Zm15,170a15.01828,15.01828,0,0,1-15,15h-315v16a39.057,39.057,0,0,1-38,38.99V420h-29a15.01828,15.01828,0,0,1-15-15V252a15.01828,15.01828,0,0,1,15-15h382a15.01828,15.01828,0,0,1,15,15Z" transform="translate(-129.13044 -106)" fill="#3f3d56"/><path d="M721.36956,273.5h-231a12.4967,12.4967,0,0,0-12.48,12.01,4.01078,4.01078,0,0,0-.02.49,12.51762,12.51762,0,0,0,12.5,12.5h231a12.5,12.5,0,0,0,0-25Z" transform="translate(-129.13044 -106)" fill="#6c63ff"/><path d="M721.36956,315.5h-231a12.4967,12.4967,0,0,0-12.48,12.01,4.01078,4.01078,0,0,0-.02.49,12.51762,12.51762,0,0,0,12.5,12.5h231a12.5,12.5,0,1,0,0-25Z" transform="translate(-129.13044 -106)" fill="#6c63ff"/><path d="M721.36956,357.5h-231a12.4967,12.4967,0,0,0-12.48,12.01,4.01078,4.01078,0,0,0-.02.49,12.51762,12.51762,0,0,0,12.5,12.5h231a12.5,12.5,0,1,0,0-25Z" transform="translate(-129.13044 -106)" fill="#6c63ff"/><path d="M353.85637,578.71973a10.706,10.706,0,0,1-1.34668-.08448,11.00313,11.00313,0,0,1-9.35986-13.48974,10.50735,10.50735,0,0,1,.31055-1.03467L310.09563,521.397a11.14851,11.14851,0,0,1-.26025-13.30859l11.687-16.23193,15.27539,11.78466-6.13672,10.54248,24.30274,42.59864a10.58837,10.58837,0,0,1,1.45117.23632,11.00288,11.00288,0,0,1-2.5586,21.70118Z" transform="translate(-129.13044 -106)" fill="#a0616a"/><polygon points="282.467 675.118 294.727 675.117 300.559 627.829 282.465 627.83 282.467 675.118" fill="#a0616a"/><path d="M408.97034,777.614h38.53073a0,0,0,0,1,0,0v14.88687a0,0,0,0,1,0,0H423.85719A14.88686,14.88686,0,0,1,408.97034,777.614v0A0,0,0,0,1,408.97034,777.614Z" transform="translate(727.37679 1464.09527) rotate(179.99738)" fill="#2f2e41"/><polygon points="181.467 675.118 193.727 675.117 199.559 627.829 181.465 627.83 181.467 675.118" fill="#a0616a"/><path d="M307.97034,777.614h38.53073a0,0,0,0,1,0,0v14.88687a0,0,0,0,1,0,0H322.85719A14.88686,14.88686,0,0,1,307.97034,777.614v0A0,0,0,0,1,307.97034,777.614Z" transform="translate(525.37679 1464.09988) rotate(179.99738)" fill="#2f2e41"/><path d="M318.122,494.15913l27.52466,10.45937,6.72-18.66664a11.16822,11.16822,0,0,0-5.002-13.4995h0a11.16822,11.16822,0,0,0-14.26248,2.78445Z" transform="translate(-129.13044 -106)" fill="#6c63ff"/><path d="M409.4179,742.94531a4.95254,4.95254,0,0,1-4.79248-3.72607C390.89983,686.708,376.96331,660.3877,362.019,629.95313a3.97443,3.97443,0,0,0-7.49463,1.15576L336.00042,738.15771a4.98232,4.98232,0,0,1-5.03516,4.21827l-27.50146-.67041a4.93342,4.93342,0,0,1-3.5376-1.60059,4.48423,4.48423,0,0,1-1.30371-3.64746c12.456-82.14484,22.26318-156.50092,41.123-179.18457a6.6845,6.6845,0,0,1,1.77491-1.20654l-.57227-.08789c-.16357-.02539-.59912-.09229-.60449-.52979l-.00537-.42334.43017-.08154a5.57017,5.57017,0,0,1,2.02149.3042l43.04443,6.62451a4.97165,4.97165,0,0,1,4.21387,5.02392c2.34033,10.94727,5.92627,27.4712,6.24707,28.28516,22.96582,43.66162,31.87744,78.043,41.14014,136.75244a4.98641,4.98641,0,0,1-3.812,5.61914L410.539,742.81836A5.02941,5.02941,0,0,1,409.4179,742.94531Z" transform="translate(-129.13044 -106)" fill="#2f2e41"/><path d="M385.26214,569.03125a4.94984,4.94984,0,0,1-1.147-.13477l-42.37842-10.08105a4.88411,4.88411,0,0,1-3.11572-2.30908,5.122,5.122,0,0,1-.48388-3.9834c4.56982-15.84326-1.42237-35.48291-8.57862-54.34619a26.00516,26.00516,0,0,1,14.21924-27.58838l.11523-.05567,22.24952,1.123a24.99167,24.99167,0,0,1,16.56689,14.17969c8.57568,20.0708,11.03125,45.82519,7.50586,78.73486a4.98579,4.98579,0,0,1-4.95312,4.46094Z" transform="translate(-129.13044 -106)" fill="#6c63ff"/><path d="M390.96331,523.2168a10.86264,10.86264,0,0,1-6.31348-2.00684l-16.41406-11.69922,11.71094-15.332,10.57177,6.08643,42.48145-24.50733a10.5714,10.5714,0,0,1,.229-1.45215,11,11,0,1,1,8.19092,13.22559,10.51615,10.51615,0,0,1-1.03613-.30566l-42.67432,33.666A10.88553,10.88553,0,0,1,390.96331,523.2168Z" transform="translate(-129.13044 -106)" fill="#a0616a"/><path d="M363.02847,514.28542,387.37715,497.728l-11.44288-16.20686a11.16823,11.16823,0,0,0-13.92862-3.64005h0a11.16823,11.16823,0,0,0-5.89441,13.2826Z" transform="translate(-129.13044 -106)" fill="#6c63ff"/><circle cx="222.18793" cy="331.66142" r="24.56103" fill="#a0616a"/><path d="M353.56886,462.7904c-3.68637-.016-6.53017-3.89721-6.36494-7.57991s2.63867-6.92286,5.61866-9.09293,6.47478-3.49191,9.798-5.08739,6.61743-3.58561,8.66925-6.64823a14.71558,14.71558,0,0,0,1.02332-13.50437,21.66865,21.66865,0,0,0-9.3332-10.22418,28.37777,28.37777,0,0,0-37.60707,8.25038l-4.20808,11.45787c-4.28786,5.15613-4.968,12.81333-2.33217,18.97968s8.24814,10.80579,14.58112,13.0114a35.79392,35.79392,0,0,0,19.8411.59488" transform="translate(-129.13044 -106)" fill="#2f2e41"/><path d="M327.03034,426.0165a18.84934,18.84934,0,0,0-31.29209-.50241c-2.95451,4.25033-4.02749,9.48995-6.059,14.251a37.76844,37.76844,0,0,1-18.7969,19.30273c7.37735,1.29738,14.72705-2.45561,20.62508-7.07315s11.085-10.25357,17.69043-13.78584a33.28918,33.28918,0,0,1,16.9177-3.88554" transform="translate(-129.13044 -106)" fill="#2f2e41"/><path d="M533.76326,794h-381a1,1,0,1,1,0-2h381a1,1,0,0,1,0,2Z" transform="translate(-129.13044 -106)" fill="#3f3d56"/><circle cx="882.73911" cy="307" r="59" fill="#e6e6e6"/><path d="M1017.49638,455.05249c-2.403-.06707-5.39356-.15117-7.6961-1.83322a5.911,5.911,0,0,1-2.32577-4.41344,3.97583,3.97583,0,0,1,1.352-3.2651,5.12994,5.12994,0,0,1,4.85347-.69872l-1.96169-14.33613,1.44-.1973,2.30625,16.85388-1.20245-.55181c-1.39426-.63947-3.308-.96452-4.49736.0401a2.5535,2.5535,0,0,0-.83766,2.10363,4.46734,4.46734,0,0,0,1.73049,3.291c1.79189,1.30945,4.17568,1.47836,6.87956,1.5543Z" transform="translate(-129.13044 -106)" fill="#3f3d56"/><rect x="867.63784" y="325.74222" width="7.82846" height="1.45352" fill="#3f3d56"/><rect x="892.34769" y="325.74222" width="7.82846" height="1.45352" fill="#3f3d56"/><path d="M983.16754,411.67085c-6.30408-.71887-11.18645-6.759-11.72271-12.88761-.638-7.29095,3.60807-14.21567,9.43329-18.307,6.09185-4.27862,13.6817-6.06537,21.02522-6.45869a57.78437,57.78437,0,0,1,39.49806,13.01889c5.50262,4.57021,10.64171,10.39185,12.58945,17.42367,1.69154,6.10683.31505,13.02509-4.59657,17.30213a11.61083,11.61083,0,0,1-8.91,2.74332c-3.81105-.39571-7.32736-2.39959-10.37115-4.61267-5.92081-4.3049-10.78149-10.302-17.99494-12.55164-5.28915-1.64948-12.15288-.19756-15.38508,4.58549a8.706,8.706,0,0,0-1.39,3.64737,1.129,1.129,0,0,0,.7614,1.341,1.09691,1.09691,0,0,0,1.341-.7614c.84855-6.02439,8.2561-8.27237,13.45419-6.89658,7.57905,2.006,12.6668,8.76916,18.88511,13.06608a22.94927,22.94927,0,0,0,10.99765,4.38964,13.65646,13.65646,0,0,0,9.59562-2.94781c5.31232-4.19478,7.34389-11.40969,6.1692-17.90551-1.3603-7.52226-6.42328-13.96929-11.97844-18.96062a59.91921,59.91921,0,0,0-40.94857-15.12706c-7.68445.17651-15.70245,1.76287-22.32257,5.82442-6.42149,3.93968-11.38475,10.53076-12.03345,18.19222-.571,6.74356,3.04707,13.797,9.25778,16.75134a14.49771,14.49771,0,0,0,4.64556,1.31133c1.3917.1587,1.38036-2.02287,0-2.18028Z" transform="translate(-129.13044 -106)" fill="#3f3d56"/></svg>